Coordinates
nRows=136
nColumns=3

# SIMM Motion File Header:
name Coordinates
datacolumns 3
datarows 136
otherdata 1
range 0.27000000000000002000 0.40500000000000003000
endheader
time	r_shoulder_elev	r_elbow_flex
      0.27000000000000002000	     -0.06876535611284477500	     14.17317501044444400000
      0.27100000000000002000	     -0.07552021987997809000	     14.29203204205504600000
      0.27200000000000002000	     -0.08134475842871985400	     14.40898033522795200000
      0.27300000000000002000	     -0.08716929697746161900	     14.52592862840085700000
      0.27400000000000002000	     -0.08984788534391612000	     14.63540961874584700000
      0.27500000000000002000	     -0.09207705225575935100	     14.74382385154399300000
      0.27600000000000002000	     -0.09281187308894700600	     14.84873219828813100000
      0.27700000000000002000	     -0.09105611712438140000	     14.94779740160893200000
      0.27800000000000002000	     -0.08930036115981578000	     15.04686260492973200000
      0.27900000000000003000	     -0.08565090513463984000	     15.14215984787033700000
      0.28000000000000003000	     -0.08173092052937880300	     15.23691881075663100000
      0.28100000000000003000	     -0.07830313496317711800	     15.33405350217552000000
      0.28200000000000003000	     -0.07517066882041105500	     15.43261363071396600000
      0.28300000000000003000	     -0.07246427862748053300	     15.53254981052245400000
      0.28400000000000003000	     -0.07274042008339166900	     15.64211834922120500000
      0.28500000000000003000	     -0.07301656153930279100	     15.75168688791995700000
      0.28600000000000003000	     -0.07595242617290698400	     15.86941120101095700000
      0.28699999999999998000	     -0.08048412471312306500	     15.99202897873728800000
      0.28799999999999998000	     -0.08532768148295193100	     16.11561153969434900000
      0.28899999999999998000	     -0.09235424586005334900	     16.24594758326641400000
      0.28999999999999998000	     -0.09938081023715475400	     16.37628362683848200000
      0.29099999999999998000	     -0.10569049583803973000	     16.50498399027210500000
      0.29199999999999998000	     -0.11189777018517941000	     16.63345068511452500000
      0.29299999999999998000	     -0.11662001572084256000	     16.75785188506076700000
      0.29399999999999998000	     -0.11886721323738010000	     16.87547726018005500000
      0.29499999999999998000	     -0.12111441075391763000	     16.99310263529934400000
      0.29599999999999999000	     -0.11854521236944066000	     17.09763211815546000000
      0.29699999999999999000	     -0.11528795742767878000	     17.20029075925970500000
      0.29799999999999999000	     -0.11031090728897933000	     17.29850891168906200000
      0.29899999999999999000	     -0.10246753182205959000	     17.38932624966029600000
      0.29999999999999999000	     -0.09462415635513984900	     17.48014358763153100000
      0.30099999999999999000	     -0.08498378523837979400	     17.56765375017113900000
      0.30199999999999999000	     -0.07534341412161954500	     17.65516391271074400000
      0.30299999999999999000	     -0.06644599124223170300	     17.74672768115620200000
      0.30399999999999999000	     -0.05779621777530114000	     17.83964265157027600000
      0.30499999999999999000	     -0.04988586772756172000	     17.93543516934979100000
      0.30599999999999999000	     -0.04419378793739078100	     18.03986032922561100000
      0.30700000000000000000	     -0.03850170814721984300	     18.14428548910143100000
      0.30800000000000000000	     -0.03509496264393077700	     18.25720922531063900000
      0.30900000000000000000	     -0.03244999523626617600	     18.37296582029763000000
      0.31000000000000000000	     -0.03012489709952111100	     18.48997090352715500000
      0.31100000000000000000	     -0.02875940677552970800	     18.61072145148424900000
      0.31200000000000000000	     -0.02729713042611232900	     18.73117394588262000000
      0.31300000000000000000	     -0.02515735189871375800	     18.84954006536990800000
      0.31400000000000000000	     -0.02301757337131518600	     18.96790618485719200000
      0.31500000000000000000	     -0.01937984059947714400	     19.08088071226259100000
      0.31600000000000000000	     -0.01484333528097685700	     19.19062028441886600000
      0.31700000000000000000	     -0.00998679628964245500	     19.29906889730690600000
      0.31800000000000000000	     -0.00289002158848260380	     19.39848079531735400000
      0.31900000000000001000	      0.00420675311267724660	     19.49789269332780300000
      0.32000000000000001000	      0.01186031313742293500	     19.59359469197480100000
      0.32100000000000001000	      0.01984794435631880000	     19.68707075100373400000
      0.32200000000000001000	      0.02729607009006908600	     19.78090405113768200000
      0.32300000000000001000	      0.03384502001524366400	     19.87533275311332300000
      0.32400000000000001000	      0.04039396994041824500	     19.96976145508896400000
      0.32500000000000001000	      0.04391371656523007000	     20.07062479537501400000
      0.32600000000000001000	      0.04700071986142000800	     20.17240736970540700000
      0.32700000000000001000	      0.04855957427430640500	     20.27797582889761000000
      0.32800000000000001000	      0.04757151388169367200	     20.38985409619280600000
      0.32900000000000001000	      0.04658345348908094600	     20.50173236348799900000
      0.33000000000000002000	      0.04316790681969184800	     20.62002565575479500000
      0.33100000000000002000	      0.03940557639648042300	     20.73923538016038400000
      0.33200000000000002000	      0.03515632635726245000	     20.85983856328959300000
      0.33300000000000002000	      0.03061492454844061800	     20.98127782165297400000
      0.33400000000000002000	      0.02618643911227112500	     21.10245209223047200000
      0.33500000000000002000	      0.02254836828466576200	     21.22177144830677500000
      0.33600000000000002000	      0.01891029745706039900	     21.34109080438307900000
      0.33700000000000002000	      0.01620334617910151500	     21.45836560712149000000
      0.33800000000000002000	      0.01405506663092909500	     21.57441367785716200000
      0.33900000000000002000	      0.01196906904374583200	     21.69047008402795700000
      0.34000000000000002000	      0.01031904518348318600	     21.80658483824459300000
      0.34100000000000003000	      0.00866902132322053790	     21.92269959246122800000
      0.34200000000000003000	      0.00564151253111886810	     22.04470831758047600000
      0.34300000000000003000	      0.00241722017732593380	     22.16755903854295400000
      0.34400000000000003000	     -0.00210020881890429650	     22.29523883073836600000
      0.34500000000000003000	     -0.00877286555252733930	     22.43096707498866500000
      0.34600000000000003000	     -0.01544552228615038300	     22.56669531923896300000
      0.34700000000000003000	     -0.02512644231290376800	     22.71357928595329400000
      0.34800000000000003000	     -0.03523711423867353200	     22.86205692730533600000
      0.34900000000000003000	     -0.04568876172032691100	     23.01217564007175300000
      0.34999999999999998000	     -0.05670870179511696600	     23.16502947186211600000
      0.35099999999999998000	     -0.06734703398391109200	     23.31678582092020200000
      0.35199999999999998000	     -0.07531411097072766800	     23.46085979085227500000
      0.35299999999999998000	     -0.08328118795754424500	     23.60493376078435200000
      0.35399999999999998000	     -0.08702144792402878600	     23.73547484961411400000
      0.35499999999999998000	     -0.08822561767831635400	     23.85789620978248800000
      0.35599999999999998000	     -0.08841122725993487400	     23.97688701016341300000
      0.35699999999999998000	     -0.08146691563290176000	     24.07186389203226500000
      0.35799999999999998000	     -0.07452260400586864500	     24.16684077390111800000
      0.35899999999999999000	     -0.06351236113984516700	     24.24714404221346700000
      0.35999999999999999000	     -0.05006255953043541700	     24.31864314239194200000
      0.36099999999999999000	     -0.03533937809013217700	     24.38467654282845100000
      0.36199999999999999000	     -0.01849389693167222800	     24.44160044369501600000
      0.36299999999999999000	     -0.00164841577321228070	     24.49852434456158100000
      0.36399999999999999000	      0.01513866003566277000	     24.55195981806493700000
      0.36499999999999999000	      0.03191739222316856300	     24.60489694480211800000
      0.36599999999999999000	      0.04741596917428226400	     24.66042880883764400000
      0.36699999999999999000	      0.06078095406474667100	     24.72028523503706400000
      0.36799999999999999000	      0.07414593895521107100	     24.78014166123648100000
      0.36899999999999999000	      0.08277407858350832600	     24.85229283546571100000
      0.37000000000000000000	      0.09072552603150053900	     24.92620040227061700000
      0.37100000000000000000	      0.09446138005319572300	     25.01197494841848700000
      0.37200000000000000000	      0.09566787801911133500	     25.10486968217214000000
      0.37300000000000000000	      0.09590341785334545500	     25.20060931394727900000
      0.37400000000000000000	      0.08934225076581847600	     25.31626323187277400000
      0.37500000000000000000	      0.08278108367829149800	     25.43191714979826700000
      0.37600000000000000000	      0.07184693981486074700	     25.56076648871246000000
      0.37700000000000000000	      0.05828900988589254300	     25.69753308021985600000
      0.37800000000000000000	      0.04420808679838912600	     25.83594714314395800000
      0.37900000000000000000	      0.02646621160116292100	     25.98589350598495100000
      0.38000000000000000000	      0.00872433640393671310	     26.13583986882594000000
      0.38100000000000001000	     -0.00917023418113431690	     26.28710644771776800000
      0.38200000000000001000	     -0.02708661839304035400	     26.43856162890256900000
      0.38300000000000001000	     -0.04353793629953272400	     26.58604007139707500000
      0.38400000000000001000	     -0.05754747703033694800	     26.72689061607442400000
      0.38500000000000001000	     -0.07155701776114117800	     26.86774116075177300000
      0.38600000000000001000	     -0.08004184457087440400	     26.99296383631219600000
      0.38700000000000001000	     -0.08773742653474324300	     27.11595395914163500000
      0.38800000000000001000	     -0.09323069893174312800	     27.23270925365661900000
      0.38900000000000001000	     -0.09505345538397208500	     27.33907316764754800000
      0.39000000000000001000	     -0.09687621183620104300	     27.44543708163847700000
      0.39100000000000001000	     -0.09548359373420786700	     27.54314118145699600000
      0.39200000000000002000	     -0.09409097563221416300	     27.64084528127551000000
      0.39300000000000002000	     -0.09258536796062440100	     27.73905448592059000000
      0.39400000000000002000	     -0.09101196654727705700	     27.83756675346161200000
      0.39500000000000002000	     -0.08971112144606431500	     27.93713232996263700000
      0.39600000000000002000	     -0.09031817052978742500	     28.04407106918369400000
      0.39700000000000002000	     -0.09092521961351054900	     28.15100980840474800000
      0.39800000000000002000	     -0.09336525050500395200	     28.26497871250426300000
      0.39900000000000002000	     -0.09690507048115648600	     28.38316571553084300000
      0.40000000000000002000	     -0.10068042934085429000	     28.50241660259009200000
      0.40100000000000002000	     -0.10610456038535490000	     28.62911467787793300000
      0.40200000000000002000	     -0.11152869142985551000	     28.75581275316577700000
      0.40300000000000002000	     -0.11717256533557946000	     28.88602525865757900000
      0.40400000000000003000	     -0.12284783107862100000	     29.01673982560708600000
      0.40500000000000003000	     -0.12811366684070605000	     29.14759173562038800000
